<?xml version="1.0" encoding="UTF-8" standalone="no"?>
<!DOCTYPE svg PUBLIC "-//W3C//DTD SVG 1.1//EN" "http://www.w3.org/Graphics/SVG/1.1/DTD/svg11.dtd">
<svg viewBox="0 0 1024 1024" xmlns:xlink="http://www.w3.org/1999/xlink" height="1024.0pt" width="1024.0pt" xmlns="http://www.w3.org/2000/svg" version="1.1"><defs>
<path d="M 0.00 0.00 L 1024.00 0.00 L 1024.00 1024.00 L 0.00 1024.00 L 0.00 0.00 Z" id="p0" />
<path d="M 526.00 44.38 C 539.39 45.02 552.77 46.51 566.00 48.68 C 627.56 58.99 685.64 88.21 730.79 131.28 C 735.27 135.10 739.34 139.32 743.24 143.73 C 774.10 176.09 797.86 215.30 812.55 257.52 C 822.03 284.76 827.59 313.23 829.44 342.00 C 829.55 347.34 829.47 352.65 830.08 357.97 C 830.49 361.39 830.23 364.65 829.56 368.01 C 825.94 366.52 822.50 364.72 819.02 362.94 C 782.85 345.42 743.52 334.50 703.47 331.03 C 697.00 330.10 690.51 330.51 684.02 329.87 C 673.94 329.10 664.05 330.21 654.00 330.38 C 624.81 332.39 595.93 337.90 568.25 347.44 C 549.47 353.60 531.69 362.03 514.24 371.24 C 511.55 372.86 509.10 370.74 506.69 369.60 C 499.99 365.70 492.99 362.45 485.96 359.21 C 446.47 341.42 403.31 331.21 360.00 329.99 C 348.91 329.09 338.07 330.14 327.01 330.48 C 294.71 332.87 262.76 339.71 232.48 351.27 C 219.43 355.94 207.18 362.22 194.60 367.90 C 194.48 360.60 194.57 353.30 194.56 346.00 C 196.54 306.26 205.83 266.71 222.37 230.49 C 235.14 202.27 252.22 175.96 272.61 152.65 C 280.18 144.32 288.32 136.39 296.40 128.41 C 315.81 110.60 337.30 95.08 360.47 82.53 C 398.48 61.84 440.85 49.05 483.98 45.41 C 497.78 43.87 512.08 44.23 526.00 44.38 Z" id="p1" />
<path d="M 496.23 380.15 C 497.35 381.63 495.14 382.48 494.22 383.26 C 479.04 393.05 464.62 404.20 451.22 416.32 C 413.48 450.26 383.77 492.98 365.22 540.23 C 353.62 569.03 346.71 599.35 343.45 630.18 C 325.57 619.51 309.12 606.28 293.95 592.05 C 267.42 567.00 245.17 537.79 228.76 505.18 C 211.37 471.52 200.46 434.43 196.20 396.81 C 195.60 392.59 195.24 388.35 195.50 384.08 C 210.93 375.99 226.61 368.51 243.07 362.72 C 266.64 354.35 291.17 348.82 316.04 346.17 C 377.77 339.60 441.18 351.41 496.23 380.15 Z" id="p2" />
<path d="M 828.71 384.25 C 828.71 393.64 827.18 402.53 825.87 411.79 C 816.91 468.94 791.56 523.06 753.97 566.96 C 744.60 578.10 733.98 588.38 723.42 598.40 C 710.12 610.10 695.96 621.18 680.70 630.19 C 676.71 590.94 666.18 552.60 648.73 517.18 C 636.42 491.54 620.50 467.59 601.98 446.02 C 593.84 436.25 584.65 427.32 575.50 418.50 C 560.55 404.51 544.17 392.34 527.12 381.05 C 530.69 378.88 534.38 376.99 538.18 375.26 C 559.79 365.00 582.60 357.03 605.99 351.96 C 681.01 335.30 761.65 346.55 828.71 384.25 Z" id="p3" />
<path d="M 181.29 393.36 C 181.81 403.63 183.62 413.85 185.48 423.96 C 193.89 467.51 211.12 509.30 235.97 546.04 C 263.41 587.11 300.13 621.42 342.37 646.90 C 342.39 652.29 341.99 657.67 341.95 663.06 C 342.32 669.37 342.32 675.69 342.64 682.00 C 344.31 704.67 347.72 727.08 353.87 748.99 C 366.87 796.75 390.86 841.32 423.31 878.67 C 444.57 903.09 469.33 924.58 496.70 941.90 C 496.53 942.32 496.35 942.74 496.18 943.16 C 475.06 954.01 452.90 962.71 429.90 968.63 C 394.21 978.05 356.69 980.72 319.96 977.50 C 278.00 973.70 236.75 961.36 199.65 941.36 C 137.03 908.04 86.39 853.24 58.11 788.18 C 42.38 752.22 33.52 713.22 32.11 674.00 C 31.13 661.48 32.14 649.44 32.74 636.98 C 34.24 620.61 36.42 604.51 40.34 588.53 C 50.49 545.23 70.08 504.36 97.13 469.08 C 118.67 441.16 144.88 416.73 174.26 397.22 C 176.53 395.69 178.58 394.06 181.29 393.36 Z" id="p4" />
<path d="M 843.58 392.97 C 876.25 413.45 905.20 439.95 928.45 470.72 C 960.72 513.40 982.06 564.15 989.34 617.19 C 996.12 664.55 991.91 713.52 977.26 759.06 C 964.54 798.29 944.08 834.92 917.45 866.40 C 908.90 876.50 899.54 885.82 889.98 894.97 C 850.67 931.28 802.08 957.35 750.06 969.96 C 699.05 982.19 644.86 981.83 594.08 968.59 C 571.02 962.57 548.70 953.91 527.58 942.86 C 528.59 941.71 529.56 940.57 530.88 939.75 C 582.96 906.03 625.04 857.43 651.26 801.21 C 669.46 762.33 679.82 719.89 681.86 677.01 C 682.79 666.70 682.10 656.75 682.26 646.45 C 714.99 627.14 744.26 601.76 768.50 572.53 C 808.90 523.92 834.98 463.79 842.35 400.98 C 842.63 398.29 843.11 395.64 843.58 392.97 Z" id="p5" />
<path d="M 357.46 655.38 C 360.22 656.52 362.83 658.04 365.53 659.34 C 404.34 678.55 447.02 689.97 490.23 692.78 C 500.71 693.88 511.45 693.39 522.00 693.48 C 556.06 692.21 589.93 686.20 622.07 674.75 C 637.67 669.50 652.46 662.55 667.18 655.25 C 667.42 662.55 667.42 669.72 666.81 677.00 C 666.70 685.73 665.63 694.34 664.60 703.00 C 656.71 765.65 629.10 825.20 587.07 872.24 C 566.02 896.13 541.25 916.52 514.11 933.13 C 512.81 933.83 511.98 934.04 510.62 933.30 C 463.14 904.75 423.50 863.67 396.65 815.21 C 371.32 769.81 357.50 718.00 357.14 666.00 C 357.04 662.41 356.96 658.95 357.46 655.38 Z" id="p6" />
<path d="M 328.15 769.13 L 328.97 769.13 L 329.37 769.86 L 328.97 770.58 L 328.15 770.58 L 327.75 769.86 L 328.15 769.13 Z" id="p7" /></defs><g stroke-width="10pt">
<use stroke="#ffffff" xlink:href="#p0" />
<use stroke="#59b8b0" xlink:href="#p1" />
<use stroke="#319088" xlink:href="#p2" />
<use stroke="#75aca7" xlink:href="#p3" />
<use stroke="#2b9777" xlink:href="#p4" />
<use stroke="#8cc497" xlink:href="#p5" />
<use stroke="#4f8575" xlink:href="#p6" />
<use stroke="#65ccae" xlink:href="#p7" /></g>
<g>
<use xlink:href="#p0" fill="#ffffff" />
<use xlink:href="#p1" fill="#59b8b0" />
<use xlink:href="#p2" fill="#319088" />
<use xlink:href="#p3" fill="#75aca7" />
<use xlink:href="#p4" fill="#2b9777" />
<use xlink:href="#p5" fill="#8cc497" />
<use xlink:href="#p6" fill="#4f8575" />
<use xlink:href="#p7" fill="#65ccae" /></g></svg>